<svg id="Layer_1" data-name="Layer 1" xmlns="http://www.w3.org/2000/svg" viewBox="0 0 158.76 27.26"><title>houdini_logo</title><path d="M26.16,8.65h5.65V18.81H42.23V8.65h5.69V34.33H42.23V24H31.81V34.33H26.16Z" transform="translate(-26.16 -7.51)" style="fill:#fff"/><path d="M50.65,24.61v-.08A10.32,10.32,0,0,1,61,14.29h.28c6.1,0,10.6,4.51,10.6,10.16v.07A10.32,10.32,0,0,1,61.53,34.77h-.28C55.16,34.76,50.65,30.26,50.65,24.61Zm15.77,0v-.08a5.2,5.2,0,0,0-5-5.42h-.17a5,5,0,0,0-5.11,5,2.64,2.64,0,0,0,0,.4v.07a5.22,5.22,0,0,0,5,5.43h.15A5,5,0,0,0,66.42,24.61Z" transform="translate(-26.16 -7.51)" style="fill:#fff"/><path d="M74.34,27.4V14.66H79.9v11c0,2.64,1.24,4,3.37,4s3.49-1.36,3.49-4v-11h5.57V34.33H86.79V31.52A7,7,0,0,1,81,34.68C76.81,34.69,74.34,31.9,74.34,27.4Z" transform="translate(-26.16 -7.51)" style="fill:#fff"/><path d="M95,24.53v-.07c0-6.57,4.29-10.16,9-10.16a7.51,7.51,0,0,1,6.12,2.9V7.51h5.59V34.33h-5.59V31.52A7.19,7.19,0,0,1,104,34.7C99.37,34.69,95,31.1,95,24.53Zm15.15,0v-.07c0-3.26-2.17-5.43-4.77-5.43s-4.84,2.13-4.84,5.43v.07c0,3.27,2.2,5.44,4.84,5.44S110.15,27.8,110.15,24.53Z" transform="translate(-26.16 -7.51)" style="fill:#fff"/><path d="M119.28,7.54h5.87v5h-5.87Zm.15,7.12H125V34.33h-5.58Z" transform="translate(-26.16 -7.51)" style="fill:#fff"/><path d="M128.79,14.66h5.57v2.8a6.94,6.94,0,0,1,5.81-3.16c4.22,0,6.68,2.79,6.68,7.29V34.33h-5.58v-11c0-2.64-1.24-4-3.37-4s-3.49,1.37-3.49,4v11h-5.58Z" transform="translate(-26.16 -7.51)" style="fill:#fff"/><path d="M150.28,7.54h5.87v5h-5.87Zm.15,7.12H156V34.33h-5.58Z" transform="translate(-26.16 -7.51)" style="fill:#fff"/><path d="M160.33,30.75v3.58h3.13A7.07,7.07,0,0,1,160.33,30.75Z" transform="translate(-26.16 -7.51)" style="fill:#ff4713"/><path d="M173.42,27a6.78,6.78,0,0,0-6.65-6.63,8.4,8.4,0,0,0-6.49,2.47v3.45a6.36,6.36,0,0,1,6.08-4.2,5,5,0,0,1,5.13,4.68c0,2.35-1,4.09-3.64,4.51-1.45.24-3.72-.62-3.63-2.81A1.78,1.78,0,0,1,166,26.76h.12a1.27,1.27,0,0,0,1.24,2.09,2,2,0,0,0,1.62-2,2.41,2.41,0,0,0-2.64-2.15h-.09a3.88,3.88,0,0,0-4,3.78v.1c-.07,2.7,2.46,4.48,5,4.51C171.17,33.16,173.42,30.67,173.42,27Z" transform="translate(-26.16 -7.51)" style="fill:#ff4713"/><path d="M160.33,14.66v5.66a10.54,10.54,0,0,1,6.49-2.14c5.58,0,9.13,3.88,9.12,8.82a7.93,7.93,0,0,1-4.09,7.33H180V14.66Z" transform="translate(-26.16 -7.51)" style="fill:#ff4713"/><path d="M181.51,15.11h-.62V14.7h1.73v.41H182v1.61h-.44Z" transform="translate(-26.16 -7.51)" style="fill:#ff4713"/><path d="M182.91,14.7h.47l.54.86.52-.86h.48v2h-.44V15.4l-.56.86h0l-.57-.85v1.31h-.43Z" transform="translate(-26.16 -7.51)" style="fill:#ff4713"/></svg>